# xmcd
#
# Track frame offsets:
#	150
#	12643
#	24256
#	35887
#	48063
#	60044
#	70917
#	80453
#	92652
#	103080
#	113485
#	123152
#	132166
#	141533
#	150782
#	162610
#	172925
#	182631
#	196190
#	207781
#	219304
#	230632
#	239661
#	248509
#	259759
#
# Disc length: 3600 seconds
#
# Revision: 0
# Processed by: cddbd v1.5.2PL0 Copyright (c) Steve Scherf et al.
# Submitted via: EasyCDDAExtractor 12.0.0.1
#
DISCID=4a0e0e19
DTITLE=Fausto Papetti - Le Saxophone chantant
DYEAR=209
DGENRE=Instrumental
TTITLE0=Sleep Walk
TTITLE1=Till
TTITLE2=La dolce vita
TTITLE3=Morgen
TTITLE4=Noi due sconoscuiti (Strangers when we meet)
TTITLE5=Il nostro concerto
TTITLE6=Gabbie
TTITLE7=Scandalo al sole tHeme from a Summer Place)
TTITLE8=The green leaves of summer
TTITLE9=Le bonheur
TTITLE10=Words (Siver threads among the gold)
TTITLE11=Cheek to cheek
TTITLE12=Gillie
TTITLE13=Ebb tibe
TTITLE14=Nessuno al mundo
TTITLE15=Come sinfonia (Like a symphony)
TTITLE16=Tell a Laura i love her
TTITLE17=Mare incantato
TTITLE18=Too much Téquila
TTITLE19=Estate Violenta
TTITLE20=Theme from The Apartement
TTITLE21=Yours is my heart alone
TTITLE22=Le toubillon
TTITLE23=Sylvie
TTITLE24=Al di la
EXTD=
EXTT0=
EXTT1=
EXTT2=
EXTT3=
EXTT4=
EXTT5=
EXTT6=
EXTT7=
EXTT8=
EXTT9=
EXTT10=
EXTT11=
EXTT12=
EXTT13=
EXTT14=
EXTT15=
EXTT16=
EXTT17=
EXTT18=
EXTT19=
EXTT20=
EXTT21=
EXTT22=
EXTT23=
EXTT24=
PLAYORDER=
